<?xml version="1.0"?>
<svg width="173" height="73" xmlns="http://www.w3.org/2000/svg" xmlns:svg="http://www.w3.org/2000/svg" version="1.1">
 <title>fundamentals/css/syntax</title>
 <desc>Created with Sketch.</desc>

 <g class="layer">
  <title>Layer 1</title>
  <g fill="none" fill-rule="evenodd" id="fundamentals/css/syntax" transform="matrix(1 0 0 1 0 0)">
   <g fill-rule="nonzero" id="container" transform="translate(2 2)">
    <rect fill="#3366FF" height="52.48" id="mask" rx="14" stroke="#102693" stroke-width="2" width="52.48" x="6.34" y="10.06"/>
    <path d="m17.42,10.8l23.11,0l-13.8,51l-9.31,0c-5.71,0 -10.35,-4.63 -10.35,-10.35l0,-30.3c0,-5.71 4.63,-10.35 10.35,-10.35z" fill="#254EDC" id="svg_1"/>
   </g>
   <path d="m25.46,45.65c-1.43,0 -2.39,-0.21 -2.88,-0.64c-0.5,-0.42 -0.74,-1.27 -0.74,-2.56l0,-1.86c0,-0.4 -0.04,-0.76 -0.1,-1.07c-0.07,-0.32 -0.19,-0.56 -0.35,-0.73c-0.16,-0.17 -0.38,-0.3 -0.67,-0.38c-0.29,-0.08 -0.63,-0.12 -1.01,-0.12l-0.8,0l0,-1.66l0.8,0c0.81,0 1.37,-0.16 1.68,-0.5c0.31,-0.33 0.46,-0.94 0.46,-1.81l0,-1.86c0,-1.28 0.24,-2.13 0.74,-2.55c0.48,-0.42 1.44,-0.64 2.88,-0.64l1.3,0l0,1.65l-1.06,0c-0.61,0 -1.01,0.12 -1.2,0.36c-0.2,0.24 -0.3,0.78 -0.3,1.6l0,1.81c0,0.95 -0.14,1.62 -0.43,2c-0.28,0.38 -0.78,0.64 -1.52,0.75c0.72,0.13 1.23,0.38 1.52,0.78c0.29,0.38 0.43,1.06 0.43,2l0,1.78c0,0.82 0.1,1.36 0.3,1.62c0.19,0.24 0.6,0.36 1.2,0.36l1.06,0l0,1.66l-1.3,0zm15.97,-1.66l1.05,0c0.6,0 1.01,-0.13 1.21,-0.37c0.21,-0.25 0.31,-0.79 0.31,-1.61l0,-1.78c0,-0.95 0.14,-1.62 0.42,-2c0.16,-0.21 0.35,-0.37 0.61,-0.5c0.26,-0.13 0.55,-0.22 0.89,-0.28c-0.73,-0.11 -1.23,-0.36 -1.51,-0.75c-0.28,-0.38 -0.42,-1.05 -0.42,-2l0,-1.81c0,-0.81 -0.1,-1.35 -0.3,-1.6c-0.11,-0.13 -0.27,-0.23 -0.49,-0.29c-0.21,-0.05 -0.46,-0.08 -0.73,-0.08l-1.05,0l0,-1.65l1.3,0c1.43,0 2.39,0.21 2.88,0.64c0.48,0.42 0.72,1.28 0.72,2.55l0,1.86c0,0.47 0.04,0.84 0.13,1.13c0.08,0.29 0.2,0.51 0.35,0.67c0.16,0.16 0.36,0.29 0.64,0.37c0.27,0.09 0.62,0.13 1.06,0.13l0.8,0l0,1.66l-0.8,0c-0.81,0 -1.37,0.16 -1.69,0.5c-0.32,0.33 -0.47,0.93 -0.47,1.8l0,1.86c0,1.28 -0.24,2.13 -0.72,2.56c-0.5,0.43 -1.45,0.64 -2.88,0.64l-1.3,0l0,-1.66z" fill="#FFFFFF" id="{-}"/>
   <text fill="#FFFFFF" font-family="Hack-Bold, Hack" font-size="12" font-weight="bold" id="..." letter-spacing="-1.8" transform="matrix(0.739127 0 0 0.739127 5.59874 10.7963)" x="2" y="0">
    <tspan id="svg_2" transform="matrix(1 0 0 1 -12.1765 -8.11768)" x="-93.54" y="33">..</tspan>
    <tspan id="svg_3" transform="matrix(1 0 0 1 -12.1765 -8.11768)" x="-82.69" y="33">.</tspan>
   </text>
  </g>
  <text fill="#bfbfbf" font-family="Helvetica" font-size="19" font-style="normal" id="svg_5" opacity="0.9" stroke="#000000" stroke-width="0" text-anchor="middle" transform="matrix(1.77347 0 0 1.38893 -131.72 -31.5808)" word-spacing="0" x="139.12" xml:space="preserve" y="58.12">ELZIO</text>
  <text fill="#00007f" font-family="Monospace" font-size="22" id="svg_6" stroke="#000000" stroke-width="0" text-anchor="middle" transform="matrix(1.42509 0 0 1.16303 -15.27 5.29193)" x="34.5" xml:space="preserve" y="35">E</text>
 </g>
</svg>